<svg width="300" height="300" viewBox="0 0 300 300" fill="none" xmlns="http://www.w3.org/2000/svg">
<g clip-path="url(#clip0_51_2)">
<path d="M288.135 252.969C286.857 255.371 289.483 263.401 290.349 266.053C290.433 266.318 290.481 266.584 290.496 266.857C290.552 267.814 290.921 275.99 287.976 281.688C287.829 283.391 287.235 286.995 284.694 289.439C283.36 290.731 281.705 291.506 279.805 291.722C278.333 292.973 275.896 294.16 272.502 293.936C271.595 294.32 270.227 294.718 268.465 294.718C267.628 294.718 266.678 294.614 265.659 294.39C264.304 294.614 261.79 294.774 258.585 293.748C257.014 293.999 255.074 293.748 253.496 292.462C251.744 291.038 250.885 288.733 250.919 285.606C250.55 285.355 250.185 285.02 249.851 284.643C247.798 282.311 247.253 278.61 248.182 273.344C248.245 272.967 248.385 272.604 248.58 272.282C248.839 271.843 254.773 261.801 262.231 256.866C262.83 251.622 263.361 244.43 262.88 242.32C260.945 233.788 258.997 221.847 262.755 212.282C258.076 210.55 250.06 207.283 246.261 203.902C242.77 200.781 240.11 198.274 237.742 195.621C235.675 203.022 229 213.335 212.005 226.791C212.564 234.096 214.162 261.97 207.697 278.302C207.04 279.949 205.162 280.766 203.535 280.103C201.894 279.46 201.084 277.603 201.734 275.962C208.493 258.849 205.505 225.968 205.47 225.632C205.372 224.543 205.827 223.475 206.698 222.804C234.412 201.256 232.722 190.16 231.549 187.262C231.451 187.025 231.438 186.774 231.402 186.522C226.382 196.801 214.729 204.033 201.161 204.033C183.042 204.033 168.295 191.115 168.295 175.245V162.013C168.295 160.24 169.719 158.801 171.493 158.801C173.266 158.801 174.705 160.24 174.705 162.013V175.224C174.705 187.575 186.561 197.631 201.148 197.631C215.743 197.631 227.612 187.575 227.612 175.224C227.612 173.457 229.043 172.033 230.817 172.033C232.59 172.033 234.014 173.457 234.014 175.224C234.014 178.199 233.358 180.998 232.395 183.694C232.59 183.533 232.772 183.344 233.002 183.226C234.482 182.473 236.277 182.934 237.171 184.322C241.025 190.271 244.259 193.553 250.479 199.11C254.054 202.302 264.457 206.17 268.166 207.386C269.096 207.694 269.821 208.412 270.17 209.32C270.512 210.228 270.422 211.255 269.918 212.079C265.135 220.122 267.153 232.369 269.081 240.881C270.072 245.148 268.662 256.885 268.369 259.196C268.244 260.217 267.643 261.11 266.735 261.598C260.975 264.776 255.639 272.966 254.348 275.048C253.691 279.349 254.613 280.41 254.627 280.424C255.507 280.354 256.247 280.718 256.889 281.416C257.532 282.128 257.574 283.05 257.435 283.985C257.051 286.764 257.56 287.545 257.56 287.545C258.286 287.294 259.16 287.155 259.877 287.413C262.838 288.544 264.667 288.062 264.737 288.035C265.309 287.881 266.001 287.854 266.566 288.013C268.871 288.677 270.072 287.999 270.127 287.972C270.756 287.609 271.65 287.357 272.341 287.475C274.778 287.825 275.651 286.847 275.742 286.735C276.356 285.785 277.39 285.297 278.48 285.38C279.568 285.394 279.945 285.115 280.239 284.834C281.357 283.753 281.586 281.337 281.586 280.792C281.586 280.22 281.733 279.662 282.026 279.151C283.954 275.911 284.178 270.074 284.094 267.622C282.041 261.318 280.155 254.315 282.453 249.964C286.942 241.474 293.031 215.253 293.086 214.982C295.795 196.925 287.376 184.733 281.803 176.675C273.731 165 258.327 157.746 258.175 157.676C257.239 157.237 256.561 156.385 256.386 155.372C252.65 135.908 235.466 131.075 226.836 131.383C207.326 131.914 184.535 120.065 183.564 119.558C182.524 119.006 181.868 117.913 181.868 116.727C181.868 102.619 184.396 94.9447 184.508 94.6305C184.592 94.3965 184.689 94.1729 184.829 93.9596C189.487 86.475 189.284 83.1759 188.991 82.1037C188.796 81.4547 188.475 81.2586 188.419 81.2299C186.897 80.7666 186.135 79.3309 186.366 77.7565C189.857 54.3967 173.183 50.3511 172.463 50.1859C172.449 50.1859 167.967 49.4004 164.845 49.6481C164.678 49.6699 164.3 49.6699 164.118 49.6481C161.466 49.4348 157.618 49.9864 156.354 50.2135C155.789 50.3568 139.129 54.5916 142.596 77.7634C142.833 79.3378 141.88 80.8389 140.364 81.3033C140.444 81.2574 140.166 81.4317 139.973 82.1094C139.666 83.1851 139.456 86.4738 144.117 93.9585C144.254 94.1649 144.355 94.3954 144.435 94.6293C144.539 94.9435 147.078 102.624 147.078 116.725C147.078 118.269 145.978 119.598 144.457 119.879C144.128 119.934 111.4 126.055 96.5285 136.357C95.0618 137.366 93.0757 137.003 92.0666 135.551C91.7731 135.128 91.6309 134.665 91.5609 134.192C87.1197 127.357 75.7075 116.952 72.3029 113.922C68.7274 110.724 58.3267 106.863 54.624 105.64C53.6985 105.333 52.9658 104.634 52.6195 103.716C52.2766 102.801 52.3718 101.785 52.8706 100.951C57.6685 92.876 55.6468 80.6428 53.7089 72.1479C52.7422 67.8741 54.1412 56.1477 54.4347 53.8359C54.5643 52.8234 55.1641 51.9301 56.0723 51.4336C61.2497 48.561 66.4902 41.1899 68.4591 37.9929C69.1231 33.6743 68.1793 32.6228 68.1724 32.6159C67.1289 32.6859 66.5487 32.3155 65.91 31.6137C65.2678 30.905 65.2254 29.9899 65.3618 29.0473C65.746 26.2723 65.2472 25.4799 65.2403 25.4718C64.5247 25.7299 63.6521 25.8732 62.9285 25.6014C59.9791 24.4776 58.1673 24.9661 58.0825 24.9868C57.5091 25.1439 56.8222 25.1726 56.2523 25.0017C53.9348 24.3492 52.7124 25.0292 52.6642 25.0567C52.0324 25.4168 51.1597 25.6507 50.4545 25.5349C48.0452 25.192 47.1932 26.1668 47.1061 26.2711C46.4983 27.2378 45.5557 27.7687 44.362 27.6391C43.3529 27.6529 42.8953 27.9155 42.6098 28.1804C41.5445 29.2102 41.2727 31.5036 41.2658 32.226C41.2658 32.7914 41.1087 33.3567 40.822 33.8429C38.9059 37.0755 38.6788 42.9238 38.7557 45.3846C40.8014 51.6962 42.7038 58.7038 40.3932 63.0441C35.9026 71.5172 29.8181 97.7438 29.7619 98.0087C27.1577 115.305 35.0965 126.71 40.8851 135.034L41.7302 136.249C49.732 147.795 64.6119 155.305 64.7621 155.368C65.6554 155.808 66.2838 156.659 66.4764 157.623C70.201 177.027 87.2493 181.768 95.9425 181.615C95.3978 179.548 95.0561 177.412 95.0561 175.205C95.0561 173.432 96.4872 172.014 98.2612 172.014C100.031 172.014 101.463 173.432 101.463 175.205C101.463 187.557 113.334 197.612 127.92 197.612C142.514 197.612 154.374 187.557 154.374 175.205V162.007C154.374 160.234 155.805 158.795 157.579 158.795C159.352 158.795 160.784 160.234 160.784 162.007V175.218C160.784 191.104 146.037 204.027 127.906 204.027C114.691 204.027 103.345 197.116 98.1328 187.242C97.8679 187.464 97.5881 187.66 97.2601 187.786C96.1879 191.362 96.0733 202.395 122.3 222.797C123.166 223.468 123.63 224.528 123.521 225.625C123.494 225.961 120.511 258.842 127.261 275.955C127.906 277.589 127.103 279.454 125.452 280.117C125.068 280.257 124.667 280.334 124.272 280.334C122.995 280.334 121.784 279.572 121.291 278.295C114.842 261.963 116.438 234.096 116.986 226.784C92.7248 207.562 89.4957 194.769 90.7032 187.689C79.9286 186.152 64.7976 179.274 60.4653 160.381C56.297 158.105 43.9274 150.723 36.4175 139.894L35.5896 138.7C29.5395 130.014 20.4024 116.887 23.4263 96.8218C23.7268 95.4699 29.8044 69.265 34.6894 60.0489C35.9668 57.6465 33.3454 49.6091 32.4865 46.9637C32.3994 46.6988 32.3501 46.4224 32.3363 46.1495C32.3157 45.591 32.193 42.5224 32.6792 38.9401H25.1819V62.981C25.1819 64.7539 23.7497 66.1827 21.9803 66.1827C20.2063 66.1827 18.7752 64.7481 18.7752 62.981V8.48779C18.7752 6.71382 20.2132 5.28271 21.9803 5.28271C23.7497 5.28271 25.1819 6.7207 25.1819 8.48779V32.5253H34.3568C34.5208 32.1274 34.671 31.7054 34.8706 31.3247C35.007 29.631 35.6068 26.0349 38.1445 23.5821C39.4746 22.3035 41.1397 21.5317 43.0295 21.3024C44.495 20.0456 46.8836 18.8507 50.3226 19.0915C51.6666 18.5193 54.0414 17.9196 57.1869 18.6351C58.5239 18.3977 61.0272 18.251 64.2495 19.2773C65.8171 19.0365 67.7608 19.2773 69.3329 20.5593C71.0851 21.9801 71.944 24.2838 71.9096 27.4087C72.28 27.6816 72.6469 28.0027 72.9875 28.3902C73.937 29.4624 74.531 30.8683 74.8383 32.5517H79.7887V8.5027C79.7887 6.72987 81.2164 5.30106 82.9903 5.30106C84.7632 5.30106 86.1954 6.73561 86.1954 8.5027V63.0005C86.1954 64.7745 84.7574 66.2056 82.9903 66.2056C81.2164 66.2056 79.7887 64.7676 79.7887 63.0005V38.9699H74.7546C74.7191 39.2176 74.7191 39.4274 74.6675 39.6923C74.6044 40.0696 74.4679 40.4331 74.2695 40.7645C74.0046 41.2151 68.0555 51.2386 60.611 56.1718C60.0112 61.4261 59.4803 68.6217 59.9585 70.7374C61.8964 79.2381 63.8722 91.1639 60.0812 100.769C64.7598 102.49 72.7891 105.764 76.5767 109.148C80.8322 112.937 90.7135 122.066 95.8703 129.209C109.946 120.918 132.843 115.719 140.642 114.116C140.397 104.292 138.854 98.3951 138.453 97.011C133.893 89.5883 132.448 83.9258 134.03 79.7013C134.501 78.4365 135.217 77.4492 135.995 76.713C132.957 49.2858 154.845 44.0074 155.082 43.9512C155.431 43.8882 160.619 42.9352 164.648 43.2884C168.328 42.949 173.53 43.8882 173.739 43.9306C174.103 44.0074 196.008 49.2858 192.97 76.713C193.753 77.4503 194.465 78.4376 194.925 79.6944C196.503 83.919 195.05 89.5826 190.485 97.011C190.073 98.4284 188.474 104.555 188.284 114.768C193.822 117.439 211.859 125.454 226.662 124.997C236.947 124.819 257.196 130.261 262.335 152.62C266.664 154.833 279.435 162.011 286.926 172.862C293.217 181.953 302.512 195.402 299.37 216.223C299.104 217.539 293.029 243.751 288.135 252.969ZM207.578 186.94C207.578 184.399 205.552 182.319 203.039 182.319C200.538 182.319 198.542 184.399 198.542 186.94C198.542 189.496 200.546 191.563 203.039 191.563C205.552 191.564 207.578 189.496 207.578 186.94ZM121.489 186.94C121.489 189.496 123.504 191.563 126.007 191.563C128.504 191.563 130.518 189.495 130.518 186.94C130.518 184.399 128.504 182.319 126.007 182.319C123.504 182.333 121.489 184.4 121.489 186.94ZM164.46 206.939C147.055 206.939 132.906 221.101 132.906 238.5V274.935C132.906 276.694 134.337 278.133 136.111 278.133C137.884 278.133 139.313 276.694 139.313 274.935V238.5C139.313 224.647 150.601 213.348 164.461 213.348C178.322 213.348 189.618 224.632 189.618 238.5V276.289C189.618 278.063 191.035 279.502 192.809 279.502C194.583 279.502 196.014 278.063 196.014 276.289V238.5C196.027 221.101 181.867 206.939 164.46 206.939ZM173.691 250.665C173.712 250.665 173.732 250.665 173.754 250.665C180.192 250.665 184.766 246.126 184.954 245.945C186.197 244.687 186.197 242.649 184.941 241.406C183.697 240.163 181.659 240.163 180.402 241.433C180.374 241.461 177.357 244.408 173.712 244.254C171.652 244.254 169.634 243.29 167.666 241.531V236.405C169.594 237.327 171.597 237.788 173.677 237.802C173.699 237.802 173.712 237.802 173.734 237.802C180.178 237.802 184.751 233.264 184.941 233.068C186.184 231.81 186.176 229.786 184.926 228.529C183.669 227.286 181.645 227.3 180.387 228.543C180.359 228.586 177.469 231.386 173.726 231.386C173.719 231.386 173.711 231.386 173.698 231.386C171.639 231.372 169.62 230.423 167.651 228.662V223.007C167.651 221.233 166.22 219.802 164.453 219.802C162.68 219.802 161.256 221.233 161.256 223.007V228.69C159.315 230.435 157.297 231.372 155.259 231.386C151.495 231.553 148.603 228.621 148.516 228.543C147.281 227.315 145.256 227.3 143.999 228.543C142.739 229.786 142.732 231.811 143.975 233.082C144.171 233.264 148.744 237.817 155.182 237.817C155.196 237.817 155.216 237.817 155.231 237.817C157.318 237.802 159.316 237.327 161.257 236.42V241.545C159.316 243.29 157.291 244.227 155.252 244.254C155.224 244.254 155.196 244.254 155.168 244.254C151.468 244.254 148.567 241.475 148.504 241.425C147.25 240.175 145.229 240.175 143.985 241.425C142.725 242.668 142.718 244.694 143.961 245.95C144.156 246.138 148.723 250.684 155.161 250.684C155.183 250.684 155.204 250.684 155.218 250.684C157.305 250.67 159.316 250.202 161.237 249.288V256.117C159.302 257.876 157.278 258.812 155.239 258.847C155.218 258.847 155.19 258.847 155.156 258.847C151.469 258.847 148.583 256.075 148.498 255.999C147.262 254.756 145.237 254.741 143.976 255.991C142.719 257.242 142.713 259.266 143.956 260.523C144.151 260.718 148.718 265.258 155.156 265.258C155.177 265.258 155.197 265.258 155.219 265.258C157.306 265.258 159.317 264.768 161.238 263.86V265.103C161.238 266.877 162.669 268.315 164.443 268.315C166.217 268.315 167.641 266.877 167.641 265.103V263.833C169.569 264.754 171.579 265.229 173.667 265.243C173.688 265.243 173.708 265.243 173.73 265.243C180.168 265.243 184.735 260.69 184.916 260.509C186.166 259.251 186.151 257.241 184.916 255.998C183.673 254.74 181.648 254.74 180.391 255.969C180.364 256.012 177.446 258.812 173.724 258.812C173.697 258.812 173.668 258.812 173.641 258.812C171.595 258.798 169.584 257.849 167.643 256.088V249.26C169.605 250.19 171.61 250.665 173.691 250.665ZM164.474 274.25C162.324 274.25 160.591 275.997 160.591 278.147C160.591 280.297 162.331 282.03 164.474 282.03C166.61 282.03 168.342 280.297 168.342 278.147C168.342 275.997 166.617 274.25 164.474 274.25ZM267.921 193.016C268.033 194.692 269.442 195.991 271.104 195.991C271.188 195.991 271.257 195.991 271.341 195.991C273.101 195.851 274.435 194.322 274.302 192.563C272.075 162.161 245.13 159.004 244.857 158.976C243.076 158.788 241.512 160.066 241.337 161.819C241.163 163.578 242.434 165.163 244.193 165.337C245.087 165.421 266.07 167.907 267.921 193.016ZM12.5898 10.6253C10.8204 10.6253 9.38819 12.0564 9.38819 13.8304V57.6385C9.38819 59.4124 10.8262 60.8435 12.5898 60.8435C14.3638 60.8435 15.7949 59.4124 15.7949 57.6385V13.8361C15.8006 12.0633 14.3627 10.6253 12.5898 10.6253ZM92.3785 60.8573C94.1525 60.8573 95.5836 59.425 95.5836 57.6522V13.8441C95.5836 12.0713 94.1456 10.639 92.3785 10.639C90.6057 10.639 89.1769 12.0713 89.1769 13.8441V57.6534C89.178 59.4262 90.6057 60.8573 92.3785 60.8573ZM3.20164 23.4444C1.43111 23.4444 0 24.8836 0 26.6633V44.8319C0 46.6047 1.43799 48.037 3.20164 48.037C4.97561 48.037 6.40672 46.5979 6.40672 44.8319V26.6633C6.4136 24.8836 4.97447 23.4444 3.20164 23.4444ZM101.767 48.0267C103.541 48.0267 104.972 46.5921 104.972 44.825V26.6633C104.972 24.8905 103.534 23.4513 101.767 23.4513C99.9927 23.4513 98.5651 24.8905 98.5651 26.6633V44.8319C98.5651 46.6059 99.9927 48.0267 101.767 48.0267ZM54.9278 120.645C54.7467 118.893 53.147 117.597 51.4166 117.778C49.6564 117.949 48.3789 119.513 48.5429 121.266C48.5635 121.538 51.5106 148.509 81.8849 151.035C81.9755 151.05 82.0626 151.05 82.1532 151.05C83.8011 151.05 85.2081 149.785 85.3446 148.113C85.4948 146.351 84.1852 144.804 82.4193 144.654C57.4736 142.56 55.0115 121.539 54.9278 120.645Z" fill="#CEFB48"/>
</g>
<defs>
<clipPath id="clip0_51_2">
<rect width="300" height="300" fill="white"/>
</clipPath>
</defs>
</svg>
