<svg width="300" height="300" viewBox="0 0 300 300" fill="none" xmlns="http://www.w3.org/2000/svg">
<path d="M277.957 112.53C269.512 90.9501 252.636 73.1546 230.573 65.4068C206.623 57.0044 181.658 61.7745 157.954 68.3183C157.503 55.3685 158.598 42.3812 160.438 29.5591C161.481 22.3234 166.474 7.35383 154.089 6.84172C143.808 6.41516 143.78 20.1753 142.779 27.1931C140.845 40.655 139.702 54.2974 140.072 67.9058C134.377 66.9577 128.754 64.8378 123.082 63.6618C114.623 61.9169 106.007 60.8265 97.3629 60.8165C80.7053 60.8165 64.2656 65.231 50.5576 74.8714C23.9379 93.6015 13.572 126.282 14.0226 157.681C14.5154 191.679 26.0285 224.145 45.3984 251.875C53.9478 264.118 63.7775 275.859 75.9258 284.692C87.7324 293.274 100.92 297.296 115.235 299.343C121.314 300.221 127.502 300.245 133.561 299.254C138.853 298.391 143.808 296.158 149.057 295.271C153.021 294.602 158.612 297.722 162.447 298.575C168.986 300.045 175.715 300.349 182.377 299.59C206.754 296.812 226.067 285.815 242.108 267.379C277.388 226.834 298.413 164.76 277.957 112.53ZM261.883 195.681C257.373 211.49 250.237 225.943 241.01 239.504C232.84 251.51 223.37 263.407 211.232 271.61C200.084 279.135 184.996 283.246 171.553 282.013C164.715 281.392 158.49 278.106 151.7 277.461C144.098 276.746 137.072 280.813 129.66 281.823C100.518 285.788 77.5013 265.991 61.6974 244.051C42.3088 217.128 30.8051 184.96 31.9002 151.507C32.9056 120.852 47.5195 89.2204 79.4267 80.8269C95.3877 76.6357 112.197 79.0445 127.915 83.0892C134.72 84.8294 141.742 87.6554 148.803 88.0345C154.237 88.6603 160.216 86.1759 165.352 84.7626C196.097 76.3034 230.711 74.2544 252.12 102.402C271.893 128.391 270.422 165.798 261.883 195.681Z" fill="#CEFB48"/>
<path d="M127.702 169.27C120.309 171.982 108.911 176.027 104.576 183.096C105.634 181.36 106.682 179.644 104.562 183.115C102.447 186.586 103.491 184.879 104.548 183.143C98.2037 193.595 107.137 207.198 119.266 205.463C131.23 203.755 132.367 191.973 132.235 182.233C132.187 178.174 131.974 174.053 131.334 170.037C130.926 167.525 129.835 168.483 127.702 169.27Z" fill="#CEFB48"/>
<path d="M185.674 178.317C181.539 175.425 176.934 173.162 172.317 171.166C171.188 170.678 165.673 167.591 164.403 168.34C164.573 168.236 164.739 168.136 164.393 168.345C164.057 168.554 164.218 168.454 164.389 168.35C163.341 169.018 163.478 174.135 163.398 175.159C163.009 180 162.872 184.908 163.312 189.74C164.256 200.366 173.279 209.546 184.499 204.169C195.574 198.863 194.906 184.766 185.674 178.317Z" fill="#CEFB48"/>
<path d="M129.821 34.6902C130.964 1.09022 92.9636 -4.15861 79.4068 2.52225C82.9394 41.2715 112.504 42.1246 129.821 34.6902Z" fill="#CEFB48"/>
</svg>
