<svg width="300" height="300" viewBox="0 0 300 300" fill="none" xmlns="http://www.w3.org/2000/svg">
<g clip-path="url(#clip0_51_5)">
<path d="M282.75 126.566H276.1V92.6575H241.172V62.0596H194.25V126.566H105.728L105.75 62.0596H58.8217V92.6575H23.9003V126.566H17.2441C7.73418 126.566 0 134.306 0 143.816V156.185C0 165.695 7.73418 173.435 17.2441 173.435H23.9003V207.278L58.8223 207.34V237.94H105.691L105.712 173.434H194.25V237.94H241.172V207.348H276.099V173.434H282.75C292.26 173.434 300 165.694 300 156.184V143.815C300 134.306 292.26 126.566 282.75 126.566ZM23.9003 161.435H17.2441C14.3496 161.435 11.9998 159.079 11.9998 156.185V143.816C11.9998 140.921 14.3496 138.566 17.2441 138.566H23.9003V161.435ZM58.8223 195.337L35.9007 195.302V173.434V126.566V104.657H58.8223V195.337ZM93.7206 150L93.6798 173.435H93.7115L93.6913 225.94H70.8221V207.361V92.6575V74.06H93.7498L93.7206 150ZM194.25 161.435H105.717L105.72 150L105.738 138.566H194.25V161.435ZM229.172 92.6575V207.349V225.941H206.25V173.436V126.567V74.0612H229.172V92.6575ZM264.099 126.566V173.434V195.349H241.172V104.657H264.099V126.566ZM288 156.185C288 159.079 285.644 161.435 282.75 161.435H276.1V138.565H282.75C285.644 138.565 288 140.921 288 143.815V156.185Z" fill="#CEFB48"/>
</g>
<defs>
<clipPath id="clip0_51_5">
<rect width="300" height="300" fill="white"/>
</clipPath>
</defs>
</svg>
