<svg width="300" height="300" viewBox="0 0 300 300" fill="none" xmlns="http://www.w3.org/2000/svg">
<g clip-path="url(#clip0_54_25)">
<path fill-rule="evenodd" clip-rule="evenodd" d="M260.156 77.3438V42.1875C260.156 24.0656 245.466 9.375 227.344 9.375C209.222 9.375 194.531 24.0656 194.531 42.1875V255.469C194.531 280.063 174.594 300 150 300C125.406 300 105.469 280.063 105.469 255.469V42.1875C105.469 24.0656 90.7781 9.375 72.6562 9.375C54.5344 9.375 39.8438 24.0656 39.8438 42.1875V77.3438H30.4688V42.1875C30.4688 18.8883 49.357 0 72.6562 0C95.9555 0 114.844 18.8883 114.844 42.1875V67.9688V255.469C114.844 274.884 130.583 290.625 150 290.625C169.416 290.625 185.156 274.884 185.156 255.469V67.9688V42.1875C185.156 18.8883 204.045 0 227.344 0C250.643 0 269.531 18.8883 269.531 42.1875V77.3438H260.156Z" fill="#CEFB48"/>
<path fill-rule="evenodd" clip-rule="evenodd" d="M281.25 300H248.438C238.082 300 229.688 291.605 229.688 281.25V164.062H300V281.25C300 291.605 291.605 300 281.25 300ZM51.5625 300H18.75C8.39414 300 0 291.605 0 281.25V164.062H70.3125V281.25C70.3125 291.605 61.9184 300 51.5625 300Z" fill="#CEFB48"/>
<path fill-rule="evenodd" clip-rule="evenodd" d="M229.688 164.062V124.219H300V164.062H229.688ZM0 124.219H70.3125V164.062H0V124.219Z" fill="#CEFB48"/>
<path fill-rule="evenodd" clip-rule="evenodd" d="M282.422 100.546V124.219H247.266V100.546C241.916 99.4594 237.891 94.732 237.891 89.0625C237.891 82.5902 243.137 77.3438 249.609 77.3438H280.078C286.55 77.3438 291.797 82.5902 291.797 89.0625C291.797 94.732 287.77 99.4594 282.422 100.546ZM52.7344 124.219H17.5781V100.546C12.2285 99.4594 8.20312 94.732 8.20312 89.0625C8.20312 82.5902 13.4496 77.3438 19.9219 77.3438H50.3906C56.8629 77.3438 62.1094 82.5902 62.1094 89.0625C62.1094 94.732 58.0828 99.4594 52.7344 100.546V124.219Z" fill="#CEFB48"/>
</g>
<defs>
<clipPath id="clip0_54_25">
<rect width="300" height="300" fill="white"/>
</clipPath>
</defs>
</svg>
